<mxfile host="Electron" modified="2025-02-15T09:25:54.341Z" agent="Mozilla/5.0 (Windows NT 10.0; Win64; x64) AppleWebKit/537.36 (KHTML, like Gecko) draw.io/21.6.8 Chrome/114.0.5735.289 Electron/25.5.0 Safari/537.36" etag="n98cG3aMqHiaEwivitdK" version="21.6.8" type="device">
  <diagram name="Seite-1" id="Rw8Dk_Jw7AssdJ7Hz8SE">
    <mxGraphModel dx="1050" dy="629" grid="1" gridSize="10" guides="1" tooltips="1" connect="1" arrows="1" fold="1" page="1" pageScale="1" pageWidth="827" pageHeight="1169" math="0" shadow="0">
      <root>
        <mxCell id="0" />
        <mxCell id="1" parent="0" />
        <mxCell id="k5ElB0kNMsFJw1pHYSCf-1" value="" style="whiteSpace=wrap;html=1;aspect=fixed;" parent="1" vertex="1">
          <mxGeometry x="129" y="110" width="280" height="280" as="geometry" />
        </mxCell>
        <mxCell id="k5ElB0kNMsFJw1pHYSCf-2" value="User" style="shape=umlActor;verticalLabelPosition=bottom;verticalAlign=top;html=1;outlineConnect=0;" parent="1" vertex="1">
          <mxGeometry x="50" y="190" width="30" height="60" as="geometry" />
        </mxCell>
        <mxCell id="yIYzXBUu1g4bDXtVY6ws-2" value="&lt;h1&gt;&lt;span style=&quot;font-size: 18px;&quot;&gt;Collect&lt;/span&gt;&lt;/h1&gt;" style="text;html=1;strokeColor=none;fillColor=none;spacing=5;spacingTop=-20;whiteSpace=wrap;overflow=hidden;rounded=0;" vertex="1" parent="1">
          <mxGeometry x="130" y="110" width="150" height="30" as="geometry" />
        </mxCell>
        <mxCell id="yIYzXBUu1g4bDXtVY6ws-3" value="Scan NFC-Tag" style="ellipse;whiteSpace=wrap;html=1;" vertex="1" parent="1">
          <mxGeometry x="210" y="160" width="120" height="80" as="geometry" />
        </mxCell>
        <mxCell id="yIYzXBUu1g4bDXtVY6ws-4" value="" style="endArrow=none;html=1;rounded=0;entryX=0;entryY=0.5;entryDx=0;entryDy=0;" edge="1" parent="1" target="yIYzXBUu1g4bDXtVY6ws-3">
          <mxGeometry width="50" height="50" relative="1" as="geometry">
            <mxPoint x="90" y="230" as="sourcePoint" />
            <mxPoint x="140" y="180" as="targetPoint" />
          </mxGeometry>
        </mxCell>
        <mxCell id="yIYzXBUu1g4bDXtVY6ws-5" value="View new collected monument" style="ellipse;whiteSpace=wrap;html=1;" vertex="1" parent="1">
          <mxGeometry x="210" y="280" width="120" height="80" as="geometry" />
        </mxCell>
        <mxCell id="yIYzXBUu1g4bDXtVY6ws-6" value="" style="endArrow=none;html=1;rounded=0;entryX=0;entryY=0.5;entryDx=0;entryDy=0;" edge="1" parent="1" target="yIYzXBUu1g4bDXtVY6ws-5">
          <mxGeometry width="50" height="50" relative="1" as="geometry">
            <mxPoint x="90" y="250" as="sourcePoint" />
            <mxPoint x="150" y="290" as="targetPoint" />
          </mxGeometry>
        </mxCell>
        <mxCell id="yIYzXBUu1g4bDXtVY6ws-8" value="1" style="ellipse;whiteSpace=wrap;html=1;aspect=fixed;" vertex="1" parent="1">
          <mxGeometry x="194" y="160" width="20" height="20" as="geometry" />
        </mxCell>
        <mxCell id="yIYzXBUu1g4bDXtVY6ws-10" value="2" style="ellipse;whiteSpace=wrap;html=1;aspect=fixed;" vertex="1" parent="1">
          <mxGeometry x="194" y="280" width="20" height="20" as="geometry" />
        </mxCell>
        <mxCell id="yIYzXBUu1g4bDXtVY6ws-11" value="App (Frontend)" style="shape=umlLifeline;perimeter=lifelinePerimeter;whiteSpace=wrap;html=1;container=1;dropTarget=0;collapsible=0;recursiveResize=0;outlineConnect=0;portConstraint=eastwest;newEdgeStyle={&quot;edgeStyle&quot;:&quot;elbowEdgeStyle&quot;,&quot;elbow&quot;:&quot;vertical&quot;,&quot;curved&quot;:0,&quot;rounded&quot;:0};" vertex="1" parent="1">
          <mxGeometry x="129" y="540" width="100" height="360" as="geometry" />
        </mxCell>
        <mxCell id="yIYzXBUu1g4bDXtVY6ws-13" value="" style="html=1;points=[];perimeter=orthogonalPerimeter;outlineConnect=0;targetShapes=umlLifeline;portConstraint=eastwest;newEdgeStyle={&quot;edgeStyle&quot;:&quot;elbowEdgeStyle&quot;,&quot;elbow&quot;:&quot;vertical&quot;,&quot;curved&quot;:0,&quot;rounded&quot;:0};" vertex="1" parent="yIYzXBUu1g4bDXtVY6ws-11">
          <mxGeometry x="45" y="80" width="10" height="40" as="geometry" />
        </mxCell>
        <mxCell id="yIYzXBUu1g4bDXtVY6ws-14" value="Read NFC-Tag" style="html=1;align=left;spacingLeft=2;endArrow=block;rounded=0;edgeStyle=orthogonalEdgeStyle;curved=0;rounded=0;" edge="1" target="yIYzXBUu1g4bDXtVY6ws-13" parent="yIYzXBUu1g4bDXtVY6ws-11">
          <mxGeometry relative="1" as="geometry">
            <mxPoint x="55" y="60" as="sourcePoint" />
            <Array as="points">
              <mxPoint x="85" y="90" />
            </Array>
          </mxGeometry>
        </mxCell>
        <mxCell id="yIYzXBUu1g4bDXtVY6ws-23" value="" style="html=1;points=[];perimeter=orthogonalPerimeter;outlineConnect=0;targetShapes=umlLifeline;portConstraint=eastwest;newEdgeStyle={&quot;edgeStyle&quot;:&quot;elbowEdgeStyle&quot;,&quot;elbow&quot;:&quot;vertical&quot;,&quot;curved&quot;:0,&quot;rounded&quot;:0};" vertex="1" parent="yIYzXBUu1g4bDXtVY6ws-11">
          <mxGeometry x="45" y="310" width="10" height="40" as="geometry" />
        </mxCell>
        <mxCell id="yIYzXBUu1g4bDXtVY6ws-24" value="Show monument" style="html=1;align=left;spacingLeft=2;endArrow=block;rounded=0;edgeStyle=orthogonalEdgeStyle;curved=0;rounded=0;" edge="1" target="yIYzXBUu1g4bDXtVY6ws-23" parent="yIYzXBUu1g4bDXtVY6ws-11">
          <mxGeometry relative="1" as="geometry">
            <mxPoint x="50" y="290" as="sourcePoint" />
            <Array as="points">
              <mxPoint x="80" y="320" />
            </Array>
          </mxGeometry>
        </mxCell>
        <mxCell id="yIYzXBUu1g4bDXtVY6ws-12" value="Backend" style="shape=umlLifeline;perimeter=lifelinePerimeter;whiteSpace=wrap;html=1;container=1;dropTarget=0;collapsible=0;recursiveResize=0;outlineConnect=0;portConstraint=eastwest;newEdgeStyle={&quot;edgeStyle&quot;:&quot;elbowEdgeStyle&quot;,&quot;elbow&quot;:&quot;vertical&quot;,&quot;curved&quot;:0,&quot;rounded&quot;:0};" vertex="1" parent="1">
          <mxGeometry x="500" y="540" width="100" height="360" as="geometry" />
        </mxCell>
        <mxCell id="yIYzXBUu1g4bDXtVY6ws-19" value="" style="html=1;points=[];perimeter=orthogonalPerimeter;outlineConnect=0;targetShapes=umlLifeline;portConstraint=eastwest;newEdgeStyle={&quot;edgeStyle&quot;:&quot;elbowEdgeStyle&quot;,&quot;elbow&quot;:&quot;vertical&quot;,&quot;curved&quot;:0,&quot;rounded&quot;:0};" vertex="1" parent="yIYzXBUu1g4bDXtVY6ws-12">
          <mxGeometry x="45" y="180" width="10" height="40" as="geometry" />
        </mxCell>
        <mxCell id="yIYzXBUu1g4bDXtVY6ws-20" value="Update monument collection for user" style="html=1;align=left;spacingLeft=2;endArrow=block;rounded=0;edgeStyle=orthogonalEdgeStyle;curved=0;rounded=0;" edge="1" target="yIYzXBUu1g4bDXtVY6ws-19" parent="yIYzXBUu1g4bDXtVY6ws-12">
          <mxGeometry relative="1" as="geometry">
            <mxPoint x="50" y="160" as="sourcePoint" />
            <Array as="points">
              <mxPoint x="80" y="190" />
            </Array>
          </mxGeometry>
        </mxCell>
        <mxCell id="yIYzXBUu1g4bDXtVY6ws-16" value="&lt;b&gt;&quot;Collect&quot;&lt;/b&gt;" style="rounded=0;whiteSpace=wrap;html=1;" vertex="1" parent="1">
          <mxGeometry x="70" y="470" width="91" height="30" as="geometry" />
        </mxCell>
        <mxCell id="yIYzXBUu1g4bDXtVY6ws-17" value="" style="endArrow=classic;html=1;rounded=0;" edge="1" parent="1">
          <mxGeometry width="50" height="50" relative="1" as="geometry">
            <mxPoint x="178.5" y="690" as="sourcePoint" />
            <mxPoint x="549.5" y="690" as="targetPoint" />
          </mxGeometry>
        </mxCell>
        <mxCell id="yIYzXBUu1g4bDXtVY6ws-18" value="PUT /collection {userId, monumentKey}" style="text;html=1;align=center;verticalAlign=middle;resizable=0;points=[];autosize=1;strokeColor=none;fillColor=none;" vertex="1" parent="1">
          <mxGeometry x="235" y="660" width="230" height="30" as="geometry" />
        </mxCell>
        <mxCell id="yIYzXBUu1g4bDXtVY6ws-21" value="" style="endArrow=classic;html=1;rounded=0;dashed=1;" edge="1" parent="1">
          <mxGeometry width="50" height="50" relative="1" as="geometry">
            <mxPoint x="549.5" y="800" as="sourcePoint" />
            <mxPoint x="178.5" y="800" as="targetPoint" />
          </mxGeometry>
        </mxCell>
        <mxCell id="yIYzXBUu1g4bDXtVY6ws-22" value="return {Monument}" style="text;html=1;align=center;verticalAlign=middle;resizable=0;points=[];autosize=1;strokeColor=none;fillColor=none;" vertex="1" parent="1">
          <mxGeometry x="289" y="770" width="120" height="30" as="geometry" />
        </mxCell>
      </root>
    </mxGraphModel>
  </diagram>
</mxfile>
